<?xml version="1.0" encoding="utf-8"?>
<!-- Generator: Adobe Illustrator 19.0.1, SVG Export Plug-In . SVG Version: 6.00 Build 0)  -->
<svg version="1.1" id="Layer_1" xmlns="http://www.w3.org/2000/svg" xmlns:xlink="http://www.w3.org/1999/xlink" x="0px" y="0px"
	 viewBox="-227.8 361.2 44.4 44.3" style="enable-background:new -227.8 361.2 44.4 44.3;" xml:space="preserve">
<title>QR_UI</title>
<path fill="#b3b3b3" d="M-199.8,393.5l11.2,11.2c0.6,0.5,1.3,0.8,2.1,0.8c0.8,0,1.6-0.3,2.2-0.8c1.1-1.2,1.1-3.1,0-4.3l-11.2-11.2
	c2.1-3.1,3.3-6.7,3.3-10.5c0-4.8-1.9-9.5-5.3-12.9c-7.5-6.7-19-6.1-25.7,1.4c-6.2,6.9-6.2,17.4,0,24.3
	C-216.9,397.7-207.1,398.5-199.8,393.5z M-218.9,370.1c2.3-2.3,5.4-3.6,8.6-3.6c3.2,0,6.3,1.3,8.6,3.6c4.7,4.8,4.7,12.4,0,17.2l0,0
	c-4.8,4.7-12.4,4.7-17.2,0C-223.6,382.6-223.7,374.9-218.9,370.1C-218.9,370.2-218.9,370.1-218.9,370.1z"/>
</svg>
